<svg width="17" height="25" viewBox="0 0 17 25" fill="none" xmlns="http://www.w3.org/2000/svg">
    <path fill-rule="evenodd" clip-rule="evenodd" d="M8.5 1.5625C6.8424 1.5625 5.25268 2.22098 4.08058 3.39308C2.90848 4.56518 2.25 6.15489 2.25 7.8125C2.25 9.4701 2.90848 11.0598 4.08058 12.2319C5.25268 13.404 6.8424 14.0625 8.5 14.0625C10.1576 14.0625 11.7473 13.404 12.9194 12.2319C14.0915 11.0598 14.75 9.4701 14.75 7.8125C14.75 6.15489 14.0915 4.56518 12.9194 3.39308C11.7473 2.22098 10.1576 1.5625 8.5 1.5625ZM0.6875 7.8125C0.687519 6.30064 1.12621 4.82127 1.95036 3.5538C2.77451 2.28633 3.94871 1.28522 5.33056 0.671881C6.71241 0.0585395 8.24254 -0.140678 9.73538 0.0983882C11.2282 0.337455 12.6196 1.00453 13.7408 2.01872C14.862 3.03291 15.6649 4.35064 16.052 5.81209C16.4392 7.27354 16.3939 8.81592 15.9218 10.2522C15.4497 11.6884 14.571 12.9568 13.3923 13.9036C12.2136 14.8503 10.7855 15.4348 9.28125 15.5859V18.75H12.4062C12.6135 18.75 12.8122 18.8323 12.9587 18.9788C13.1052 19.1253 13.1875 19.324 13.1875 19.5312C13.1875 19.7384 13.1052 19.9372 12.9587 20.0837C12.8122 20.2302 12.6135 20.3125 12.4062 20.3125H9.28125V24.2188C9.28125 24.4259 9.19894 24.6247 9.05243 24.7712C8.90592 24.9177 8.7072 25 8.5 25C8.2928 25 8.09409 24.9177 7.94757 24.7712C7.80106 24.6247 7.71875 24.4259 7.71875 24.2188V20.3125H4.59375C4.38655 20.3125 4.18784 20.2302 4.04132 20.0837C3.89481 19.9372 3.8125 19.7384 3.8125 19.5312C3.8125 19.324 3.89481 19.1253 4.04132 18.9788C4.18784 18.8323 4.38655 18.75 4.59375 18.75H7.71875V15.5859C5.79169 15.3923 4.00527 14.4897 2.70606 13.0533C1.40685 11.617 0.687476 9.74926 0.6875 7.8125Z" fill="#FD6A49"/>
</svg>
