<svg width="34" height="32" viewBox="0 0 34 32" fill="none" xmlns="http://www.w3.org/2000/svg">
    <path d="M4.49992 15C6.80111 15 8.66658 13.1345 8.66658 10.8333C8.66658 8.53215 6.80111 6.66667 4.49992 6.66667C2.19873 6.66667 0.333252 8.53215 0.333252 10.8333C0.333252 13.1345 2.19873 15 4.49992 15Z" fill="#6ED309"/>
    <path d="M11.9999 8.33333C14.3011 8.33333 16.1666 6.46785 16.1666 4.16667C16.1666 1.86548 14.3011 0 11.9999 0C9.69873 0 7.83325 1.86548 7.83325 4.16667C7.83325 6.46785 9.69873 8.33333 11.9999 8.33333Z" fill="#6ED309"/>
    <path d="M21.9999 8.33333C24.3011 8.33333 26.1666 6.46785 26.1666 4.16667C26.1666 1.86548 24.3011 0 21.9999 0C19.6987 0 17.8333 1.86548 17.8333 4.16667C17.8333 6.46785 19.6987 8.33333 21.9999 8.33333Z" fill="#6ED309"/>
    <path d="M29.4999 15C31.8011 15 33.6666 13.1345 33.6666 10.8333C33.6666 8.53215 31.8011 6.66667 29.4999 6.66667C27.1987 6.66667 25.3333 8.53215 25.3333 10.8333C25.3333 13.1345 27.1987 15 29.4999 15Z" fill="#6ED309"/>
    <path d="M25.8999 19.7667C24.4499 18.0667 23.2332 16.6167 21.7666 14.9167C20.9999 14.0167 20.0166 13.1167 18.8499 12.7167C18.6666 12.65 18.4832 12.6 18.2999 12.5667C17.8832 12.5 17.4332 12.5 16.9999 12.5C16.5666 12.5 16.1166 12.5 15.6832 12.5833C15.4999 12.6167 15.3166 12.6667 15.1332 12.7333C13.9666 13.1333 12.9999 14.0333 12.2166 14.9333C10.7666 16.6333 9.54991 18.0833 8.08325 19.7833C5.89991 21.9667 3.21658 24.3833 3.71658 27.7667C4.19991 29.4667 5.41658 31.15 7.59991 31.6333C8.81658 31.8833 12.6999 30.9 16.8332 30.9H17.1332C21.2666 30.9 25.1499 31.8667 26.3666 31.6333C28.5499 31.15 29.7666 29.45 30.2499 27.7667C30.7666 24.3667 28.0832 21.95 25.8999 19.7667V19.7667Z" fill="#6ED309"/>
</svg>
