<svg width="23" height="23" viewBox="0 0 23 23" fill="none" xmlns="http://www.w3.org/2000/svg">
    <path fill-rule="evenodd" clip-rule="evenodd" d="M13.8438 2.125C13.6366 2.125 13.4378 2.04269 13.2913 1.89618C13.1448 1.74966 13.0625 1.55095 13.0625 1.34375C13.0625 1.13655 13.1448 0.937836 13.2913 0.791323C13.4378 0.64481 13.6366 0.5625 13.8438 0.5625H21.6563C21.8635 0.5625 22.0622 0.64481 22.2087 0.791323C22.3552 0.937836 22.4375 1.13655 22.4375 1.34375V9.15625C22.4375 9.36345 22.3552 9.56216 22.2087 9.70868C22.0622 9.85519 21.8635 9.9375 21.6563 9.9375C21.4491 9.9375 21.2503 9.85519 21.1038 9.70868C20.9573 9.56216 20.875 9.36345 20.875 9.15625V3.22969L14.4234 9.68125C15.6919 11.2331 16.3154 13.2131 16.165 15.2118C16.0146 17.2104 15.1018 19.0748 13.6153 20.4194C12.1289 21.7639 10.1826 22.4857 8.17893 22.4355C6.17525 22.3854 4.2675 21.567 2.85024 20.1498C1.43299 18.7325 0.614642 16.8248 0.564463 14.8211C0.514284 12.8174 1.23611 10.8711 2.58065 9.38467C3.92519 7.89825 5.78958 6.98543 7.78824 6.83502C9.78689 6.68461 11.7669 7.30811 13.3188 8.57656L19.7703 2.125H13.8438ZM8.37501 8.375C6.71741 8.375 5.12769 9.03348 3.95559 10.2056C2.78349 11.3777 2.12501 12.9674 2.12501 14.625C2.12501 16.2826 2.78349 17.8723 3.95559 19.0444C5.12769 20.2165 6.71741 20.875 8.37501 20.875C10.0326 20.875 11.6223 20.2165 12.7944 19.0444C13.9665 17.8723 14.625 16.2826 14.625 14.625C14.625 12.9674 13.9665 11.3777 12.7944 10.2056C11.6223 9.03348 10.0326 8.375 8.37501 8.375Z" fill="#FD6A49"/>
</svg>
