<svg width="300" height="252" viewBox="0 0 300 252" fill="none" xmlns="http://www.w3.org/2000/svg">
    <path d="M38.2518 64.4808C33.3003 64.4808 28.3973 65.4561 23.8227 67.3509C19.2482 69.2458 15.0916 72.0231 11.5904 75.5243C8.08916 79.0255 5.31184 83.1821 3.41699 87.7567C1.52214 92.3312 0.546873 97.2342 0.546873 102.186L38.2518 102.186L38.2518 64.4808Z" fill="#5046D3"/>
    <path d="M235.401 205.235L230.378 210.259L224.969 204.849C228.678 201.14 233.469 203.561 235.401 205.235Z" fill="#5046D3"/>
    <rect x="154.645" y="179.347" width="31.694" height="75.4098" transform="rotate(-45 154.645 179.347)" fill="#5046D3"/>
    <rect x="19.126" y="100.546" width="186.885" height="75.4098" rx="20" fill="#FD6A49"/>
    <path d="M75.4105 251.366H68.3066V243.716C73.5525 243.716 75.2283 248.816 75.4105 251.366Z" fill="#5046D3"/>
    <rect x="36.6123" y="175.956" width="31.694" height="75.4098" fill="#5046D3"/>
    <path d="M115.847 251.366H108.743V243.716C113.989 243.716 115.665 248.816 115.847 251.366Z" fill="#FD6A49"/>
    <rect x="77.0488" y="175.956" width="31.694" height="75.4098" fill="#FD6A49"/>
    <path d="M156.284 251.366H149.181V243.716C154.427 243.716 156.102 248.816 156.284 251.366Z" fill="#FD6A49"/>
    <rect x="117.486" y="175.956" width="31.694" height="75.4098" fill="#FD6A49"/>
    <path d="M116.393 102.186V0H0L116.393 102.186Z" fill="#FD6A49"/>
    <rect x="187.432" y="44.8088" width="112.568" height="57.9235" fill="#FD6A49"/>
    <path d="M187.432 0.546432V44.8087H214.208L187.432 0.546432Z" fill="#FD6A49"/>
    <path d="M220.219 0.546432V44.8087H246.995L220.219 0.546432Z" fill="#FD6A49"/>
</svg>
