<svg width="42" height="52" viewBox="0 0 42 52" fill="none" xmlns="http://www.w3.org/2000/svg">
    <path d="M42 21.3333C42 37.6667 21 51.6667 21 51.6667C21 51.6667 0 37.6667 0 21.3333C8.29927e-08 15.7638 2.21249 10.4224 6.15076 6.48409C10.089 2.54583 15.4305 0.333334 21 0.333334C26.5695 0.333334 31.911 2.54583 35.8492 6.48409C39.7875 10.4224 42 15.7638 42 21.3333Z" fill="#FD6A49"/>
    <path d="M21 28.3333C24.866 28.3333 28 25.1993 28 21.3333C28 17.4673 24.866 14.3333 21 14.3333C17.134 14.3333 14 17.4673 14 21.3333C14 25.1993 17.134 28.3333 21 28.3333Z" fill="white"/>
</svg>
